<svg xmlns="http://www.w3.org/2000/svg" viewBox="0 0 512 512">
  <defs>
    <linearGradient id="bubble" x1="96" y1="66" x2="416" y2="404" gradientUnits="userSpaceOnUse">
      <stop offset="0" stop-color="#5cead0"/>
      <stop offset="0.38" stop-color="#22b1ef"/>
      <stop offset="0.68" stop-color="#2f5be6"/>
      <stop offset="1" stop-color="#3a33c6"/>
    </linearGradient>
    <radialGradient id="gloss" cx="0.33" cy="0.26" r="0.72">
      <stop offset="0" stop-color="#ffffff" stop-opacity="0.40"/>
      <stop offset="0.5" stop-color="#ffffff" stop-opacity="0.06"/>
      <stop offset="1" stop-color="#ffffff" stop-opacity="0"/>
    </radialGradient>
  </defs>

  <path id="bub" fill="url(#bubble)" d="
    M256 60 C367 60 452 143 452 250 C452 357 367 440 256 440
    C232 440 210 436 189 428 C177 452 159 470 151 476
    C141 482 132 476 135 464 C140 444 145 425 143 413
    C102 378 60 320 60 250 C60 143 145 60 256 60 Z"/>
  <use href="#bub" fill="url(#gloss)"/>

  <g fill="none" stroke="#ffffff" stroke-linecap="round" stroke-linejoin="round">
    <!-- A -->
    <path d="M258 220 L206 330 M258 220 L310 330" stroke-width="28"/>
    <path d="M232 285 L284 285" stroke-width="25"/>
    <!-- lingkaran Q/O -->
    <circle cx="216" cy="212" r="49" stroke-width="18"/>
    <!-- centang di dalam lingkaran + ekor swoosh ke kanan atas -->
    <path d="M194 214 L214 236 L330 132" stroke-width="18"/>
  </g>
</svg>
